<?xml version="1.0" standalone="no"?>
<!DOCTYPE svg PUBLIC "-//W3C//DTD SVG 20010904//EN"
 "http://www.w3.org/TR/2001/REC-SVG-20010904/DTD/svg10.dtd">
<svg version="1.0" xmlns="http://www.w3.org/2000/svg"
 width="980.000000pt" height="980.000000pt" viewBox="0 0 980.000000 980.000000"
 preserveAspectRatio="xMidYMid meet">

<g transform="translate(0.000000,980.000000) scale(0.100000,-0.100000)"
fill="#000000" stroke="none">
<path d="M3930 6335 l-895 -895 45 -46 c97 -101 191 -194 198 -194 3 0 352
347 774 772 422 424 771 768 775 765 5 -4 220 -219 478 -477 l470 -470 242 2
243 3 -718 718 -717 717 -895 -895z"/>
<path d="M2963 6208 l-893 -893 318 -313 c174 -173 579 -575 899 -895 l583
-582 122 123 123 122 -780 774 -780 773 775 771 775 771 -120 120 c-66 67
-122 121 -125 121 -3 0 -407 -402 -897 -892z"/>
<path d="M4825 6150 l-120 -120 125 -120 125 -119 245 -1 244 0 -243 238
c-134 130 -247 238 -250 240 -3 1 -60 -52 -126 -118z"/>
<path d="M4020 4900 l0 -590 90 0 90 0 0 245 0 245 315 -2 316 -3 0 -242 0
-243 94 0 95 0 -2 588 -3 587 -90 0 -90 0 -2 -255 -2 -255 -315 -3 -316 -2 0
260 0 260 -90 0 -90 0 0 -590z"/>
<path d="M5260 4900 l0 -590 90 0 90 0 0 205 0 205 128 0 127 0 179 -205 178
-205 109 0 c60 0 109 2 109 5 0 6 -132 156 -224 255 -124 134 -146 159 -138
163 4 3 32 12 62 20 166 48 260 193 248 382 -11 174 -133 306 -316 344 -32 7
-171 11 -347 11 l-295 0 0 -590z m632 408 c52 -15 111 -74 126 -124 16 -55 15
-134 -2 -175 -20 -47 -51 -78 -105 -103 -42 -19 -64 -21 -256 -21 l-210 0 -3
218 -2 217 206 0 c130 0 221 -4 246 -12z"/>
<path d="M6530 4900 l0 -590 90 0 90 0 0 451 c0 272 4 448 9 444 5 -3 58 -74
117 -158 268 -379 274 -387 297 -387 17 0 64 60 217 275 107 151 198 274 203
274 4 1 7 -201 7 -449 l0 -450 90 0 90 0 0 590 0 590 -108 0 -107 0 -145 -207
c-79 -115 -165 -238 -190 -275 -25 -37 -49 -67 -55 -68 -5 0 -27 26 -47 58
-21 31 -106 154 -191 272 l-153 215 -107 3 -107 3 0 -591z"/>
<path d="M2315 4450 l-120 -121 115 -111 c63 -61 212 -206 330 -322 119 -116
326 -319 460 -450 135 -132 355 -348 490 -481 135 -132 282 -276 328 -320 l82
-79 228 225 c125 123 344 339 487 480 143 140 367 360 498 489 130 129 243
237 250 242 6 4 -100 8 -237 8 l-249 0 -221 -218 c-122 -120 -339 -335 -484
-477 -145 -143 -267 -260 -271 -260 -10 0 -171 154 -461 439 -571 562 -1092
1071 -1098 1074 -4 1 -61 -52 -127 -118z"/>
<path d="M5255 3470 l-540 -540 122 -122 121 -121 664 661 663 661 -245 1
-245 0 -540 -540z"/>
</g>
</svg>
